{"title":"John Ford - The Horse Soldiers (1959)","uid":6462556,"size":1933063787,"categoryP":"video","categoryS":"hd___movies","magnet":"?xt=urn:btih:0d20cdf0224398132ed7ccfe466dca12c61f6350&amp;dn=John+Ford+-+The+Horse+Soldiers+%281959%29&amp;tr=udp%3A%2F%2Ftracker.openbittorrent.com%3A80&amp;tr=udp%3A%2F%2Fopen.demonii.com%3A1337&amp;tr=udp%3A%2F%2Ftracker.coppersurfer.tk%3A6969&amp;tr=udp%3A%2F%2Fexodus.desync.com%3A6969","seeders":3,"leechers":0,"uploader":"mfccorrea","files":2,"time":1307826962,"description":"A Union cavalry brigade, led by Colonel John Marlowe (John Wayne), is sent on a raid behind Confederate lines to destroy a railroad and supply depot at Newton Station. Ironically, before the war, Marlowe had been a railroad building engineer. With the troop is a new regimental surgeon, Major Henry Kendall (William Holden) who seems to be constantly at odds with his commander. Kendall is torn between the duty and the horror of war.\n\nComplicating matters, while the unit rests at Greenbriar Plantation, Miss Hannah Hunter (Constance Towers), the plantation's mistress, and her slave Lukey (Althea Gibson) eavesdrop on a staff meeting wherein Marlowe discusses his plans. To protect the mission, Marlowe is forced to take the two women with him. Initially hostile to her Yankee captor, Miss Hunter gradually warms to him. In addition to Miss Hunter, Marlowe also has to continually contend with Col. Phil Secord who doubts Marlowe's orders and command decisions.\n\nSeveral battles later, including a fire-fight which results in the death of Lukey, and a skirmish with Boy Cadets from a local military school, and with Confederate forces in pursuit, Marlowe and his command reach a bridge which must be stormed in order to access the Union lines. Dr. Kendall is forced to choose between remaining behind with some badly wounded men (and being captured with them), or leaving the men without medical care until the Confederates arrive. Marlowe and the remainder of his troop escape back to Northern lines.\n\nD:\\BT Para Enviar\\The Horse Soldiers\\The Horse Soldiers.mkv\n   General\n      Complete name : The Horse Soldiers.mkv\n      Format : Matroska\n      File size : 1.80 GiB\n      Duration : 2h 0mn\n      Overall bit rate : 2 145 Kbps\n      Movie name : The.Horse.Soldiers.1959.720p.BRRip.x264-x0r\n      Encoded date : UTC 2011-06-01 13:46:09\n      Writing application : mkvmerge v2.6.0 ('Kelly watch the Stars') built on Mar 24 2009 15:23:17\n      Writing library : libebml v0.7.7 + libmatroska v0.8.1\n   Video #1\n      ID : 1\n      Format : AVC\n      Format/Info : Advanced Video Codec\n      Format profile : &lt;a class=&quot;__cf_email__&quot; href=&quot;/cdn-cgi/l/email-protection&quot; data-cfemail=&quot;feb6979996beb2cad0cf&quot;&gt;[email&amp;#160;protected]&lt;/a&gt;&lt;script cf-hash='f9e31' type=&quot;text/javascript&quot;&gt;\n/* &lt;![CDATA[ */!function(){try{var t=&quot;currentScript&quot;in document?document.currentScript:function(){for(var t=document.getElementsByTagName(&quot;script&quot;),e=t.length;e--;)if(t[e].getAttribute(&quot;cf-hash&quot;))return t[e]}();if(t&amp;&amp;t.previousSibling){var e,r,n,i,c=t.previousSibling,a=c.getAttribute(&quot;data-cfemail&quot;);if(a){for(e=&quot;&quot;,r=parseInt(a.substr(0,2),16),n=2;a.length-n;n+=2)i=parseInt(a.substr(n,2),16)^r,e+=String.fromCharCode(i);e=document.createTextNode(e),c.parentNode.replaceChild(e,c)}}}catch(u){}}();/* ]]&gt; */&lt;/script&gt;\n      Format settings, CABAC : Yes\n      Format settings, ReFrames : 5 frames\n      Muxing mode : Container profile=&lt;a class=&quot;__cf_email__&quot; href=&quot;/cdn-cgi/l/email-protection&quot; data-cfemail=&quot;b6e3d8ddd8d9c1d8f6829887&quot;&gt;[email&amp;#160;protected]&lt;/a&gt;&lt;script cf-hash='f9e31' type=&quot;text/javascript&quot;&gt;\n/* &lt;![CDATA[ */!function(){try{var t=&quot;currentScript&quot;in document?document.currentScript:function(){for(var t=document.getElementsByTagName(&quot;script&quot;),e=t.length;e--;)if(t[e].getAttribute(&quot;cf-hash&quot;))return t[e]}();if(t&amp;&amp;t.previousSibling){var e,r,n,i,c=t.previousSibling,a=c.getAttribute(&quot;data-cfemail&quot;);if(a){for(e=&quot;&quot;,r=parseInt(a.substr(0,2),16),n=2;a.length-n;n+=2)i=parseInt(a.substr(n,2),16)^r,e+=String.fromCharCode(i);e=document.createTextNode(e),c.parentNode.replaceChild(e,c)}}}catch(u){}}();/* ]]&gt; */&lt;/script&gt;\n      Codec ID : V_MPEG4/ISO/AVC\n      Duration : 2h 0mn\n      Bit rate : 1 911 Kbps\n      Nominal bit rate : 1 950 Kbps\n      Width : 1 200 pixels\n      Height : 720 pixels\n      Display aspect ratio : 1.667\n      Frame rate mode : Variable\n      Frame rate : 23.976 fps\n      Resolution : 24 bits\n      Colorimetry : 4:2:0\n      Scan type : Progressive\n      Bits/(Pixel*Frame) : 0.092\n      Stream size : 1.60 GiB (89%)\n      Writing library : x264 core 112     \n   Audio #2\n      ID : 2\n      Format : AC-3\n      Format/Info : Audio Coding 3\n      Codec ID : A_AC3\n      Duration : 2h 0mn\n      Bit rate mode : Constant\n      Bit rate : 192 Kbps\n      Channel(s) : 2 channels\n      Channel positions : L R\n      Sampling rate : 48.0 KHz\n      Video delay : 11ms\n      Stream size : 165 MiB (9%)\n      Language : English\n   Text #3\n      ID : 3\n      Format : UTF-8\n      Codec ID : S_TEXT/UTF8\n      Codec ID/Info : UTF-8 Plain Text\n      Language : English\n &lt;a href=&quot;\nhttp://www.imdb.com/title/tt0052902/&quot; rel=&quot;nofollow&quot; target=&quot;_NEW&quot;&gt;\nhttp://www.imdb.com/title/tt0052902/&lt;/a&gt;\n\nEnglish audio; English (muxed in mkv) and Portuguese subtitles\n\nJohn Ford - The Horse Soldiers (1959)","torrent":{"xt":"urn:btih:0d20cdf0224398132ed7ccfe466dca12c61f6350","amp;dn":"John+Ford+-+The+Horse+Soldiers+%281959%29","amp;tr":["udp%3A%2F%2Ftracker.openbittorrent.com%3A80","udp%3A%2F%2Fopen.demonii.com%3A1337","udp%3A%2F%2Ftracker.coppersurfer.tk%3A6969","udp%3A%2F%2Fexodus.desync.com%3A6969"],"infoHash":"0d20cdf0224398132ed7ccfe466dca12c61f6350","infoHashBuffer":{"type":"Buffer","data":[13,32,205,240,34,67,152,19,46,215,204,254,70,109,202,18,198,31,99,80]},"announce":[],"urlList":[]}}